<svg xmlns="http://www.w3.org/2000/svg" viewBox="0 0 1400 900" role="img" aria-labelledby="t d"><title id="t">Fatal work-at-height fault-tree pathways</title><desc id="d">Author redraw showing management, work-process and immediate-control pathways converging on a fatal fall.</desc><rect width="1400" height="900" rx="34" fill="#f5f8fa"/><text x="70" y="75" font-family="Arial" font-size="30" font-weight="700" fill="#12355d">How recurrent failures combine into a fatal fall</text><text x="70" y="112" font-family="Arial" font-size="17" fill="#607084">Simplified author redraw · Safety Science 151 (2022) 105724</text><g stroke="#8aa0b4" stroke-width="5" fill="none"><path d="M700 245V330M700 330H250V415M700 330V415M700 330H1150V415"/></g><rect x="475" y="155" width="450" height="120" rx="24" fill="#12355d"/><text x="700" y="205" text-anchor="middle" font-family="Arial" font-size="18" fill="#c3d4e2">TOP EVENT</text><text x="700" y="245" text-anchor="middle" font-family="Arial" font-size="30" font-weight="700" fill="#fff">Fatal fall from height</text><circle cx="700" cy="335" r="34" fill="#ef8b22"/><text x="700" y="343" text-anchor="middle" font-family="Arial" font-size="18" font-weight="700" fill="#fff">OR</text><g font-family="Arial"><g transform="translate(75 415)"><rect width="350" height="190" rx="23" fill="#fff" stroke="#d6e0e8"/><text x="25" y="42" font-size="14" font-weight="700" fill="#286c9e">MANAGEMENT PATHWAY</text><text x="25" y="88" font-size="24" font-weight="700" fill="#12355d">Supervision &amp; leadership</text><text x="25" y="140" font-size="38" font-weight="700" fill="#ef8b22">89.84%</text></g><g transform="translate(525 415)"><rect width="350" height="190" rx="23" fill="#fff" stroke="#d6e0e8"/><text x="25" y="42" font-size="14" font-weight="700" fill="#286c9e">WORK-PROCESS PATHWAY</text><text x="25" y="88" font-size="24" font-weight="700" fill="#12355d">Work standards</text><text x="25" y="140" font-size="38" font-weight="700" fill="#ef8b22">85.15%</text></g><g transform="translate(975 415)"><rect width="350" height="190" rx="23" fill="#fff" stroke="#d6e0e8"/><text x="25" y="42" font-size="14" font-weight="700" fill="#286c9e">IMMEDIATE CONTROL</text><text x="25" y="88" font-size="24" font-weight="700" fill="#12355d">PPE not used</text><text x="25" y="140" font-size="38" font-weight="700" fill="#ef8b22">85.93%</text></g></g><rect x="270" y="700" width="860" height="100" rx="20" fill="#eaf1f6"/><text x="700" y="740" text-anchor="middle" font-family="Arial" font-size="17" font-weight="700" fill="#12355d">Interpretation</text><text x="700" y="772" text-anchor="middle" font-family="Arial" font-size="16" fill="#526277">The percentages describe occurrence in the analysed cases—not independent causal probabilities.</text></svg>