<svg xmlns="http://www.w3.org/2000/svg" viewBox="0 0 1500 900" role="img" aria-labelledby="t d"><title id="t">SEED EIA evidence-led review interface</title><desc id="d">Vector interface showing source evidence, Annex 5 criteria and officer correction.</desc><rect width="1500" height="900" rx="34" fill="#f4f7f6"/><rect x="45" y="45" width="255" height="810" rx="22" fill="#115b31"/><text x="80" y="105" font-family="Arial" font-size="28" font-weight="700" fill="#fff">SEED EIA</text><text x="80" y="140" font-family="Arial" font-size="14" fill="#cce4d5">Evidence-led review</text><g font-family="Arial" font-size="16" fill="#e9f7ee"><text x="80" y="230">Dashboard</text><text x="80" y="285">Project Screening</text><text x="80" y="340">Impact Matrix</text><text x="80" y="395">Compliance</text><text x="80" y="450">Monitoring</text><text x="80" y="505">Review Report</text></g><text x="350" y="95" font-family="Arial" font-size="28" font-weight="700" fill="#142737">Construction — water quality and runoff</text><text x="350" y="132" font-family="Arial" font-size="16" fill="#647685">Evidence, criteria and officer judgement remain connected.</text><rect x="350" y="175" width="710" height="560" rx="20" fill="#fff" stroke="#d8e3dd"/><text x="385" y="225" font-family="Arial" font-size="15" font-weight="700" fill="#15723a">LOCATED EVIDENCE · PAGES 184–187</text><rect x="385" y="260" width="640" height="95" rx="12" fill="#eaf8ef"/><text x="410" y="300" font-family="Arial" font-size="16" fill="#52675a">Mitigation and drainage commitments located in narrative and table evidence.</text><g font-family="Arial"><g transform="translate(385 395)"><rect width="115" height="95" rx="11" fill="#eaf8ef"/><text x="14" y="28" font-size="12" fill="#15723a">Importance</text><text x="14" y="66" font-size="26" font-weight="700" fill="#142737">3*</text></g><g transform="translate(510 395)"><rect width="115" height="95" rx="11" fill="#eaf8ef"/><text x="14" y="28" font-size="12" fill="#15723a">Magnitude</text><text x="14" y="66" font-size="26" font-weight="700" fill="#142737">2*</text></g><g transform="translate(635 395)"><rect width="115" height="95" rx="11" fill="#fff5d8"/><text x="14" y="28" font-size="12" fill="#9a5c00">Permanence</text><text x="14" y="66" font-size="26" font-weight="700" fill="#142737">2*</text></g><g transform="translate(760 395)"><rect width="115" height="95" rx="11" fill="#eaf8ef"/><text x="14" y="28" font-size="12" fill="#15723a">Reversibility</text><text x="14" y="66" font-size="26" font-weight="700" fill="#142737">2*</text></g><g transform="translate(885 395)"><rect width="115" height="95" rx="11" fill="#eef1f3"/><text x="14" y="28" font-size="12" fill="#647685">Cumulativity</text><text x="14" y="66" font-size="26" font-weight="700" fill="#142737">—</text></g></g><rect x="385" y="535" width="640" height="145" rx="12" fill="#f7f9fb" stroke="#dce5e0"/><text x="410" y="575" font-family="Arial" font-size="15" font-weight="700" fill="#142737">Officer finding</text><text x="410" y="610" font-family="Arial" font-size="15" fill="#52675a">Indicative rating retained for confirmation; unsupported criteria remain blank.</text><rect x="835" y="625" width="165" height="43" rx="9" fill="#15723a"/><text x="918" y="652" text-anchor="middle" font-family="Arial" font-size="13" font-weight="700" fill="#fff">Confirm / correct</text><rect x="1100" y="175" width="350" height="560" rx="20" fill="#fff" stroke="#d8e3dd"/><text x="1130" y="225" font-family="Arial" font-size="15" font-weight="700" fill="#15723a">SOURCE PAGE</text><rect x="1140" y="260" width="270" height="330" rx="8" fill="#eef2f1"/><rect x="1180" y="295" width="190" height="255" rx="5" fill="#fff" stroke="#cfd9d3"/><rect x="1205" y="330" width="140" height="11" rx="4" fill="#d7dfda"/><rect x="1205" y="365" width="140" height="90" rx="6" fill="#dff1e5" stroke="#68ad7e"/><text x="1275" y="415" text-anchor="middle" font-family="Arial" font-size="12" fill="#15723a">Located table</text><text x="1130" y="645" font-family="Arial" font-size="14" font-weight="700" fill="#142737">Page 186 · open original</text></svg>